<?xml version="1.0" encoding="iso-8859-1"?>
<!-- Uploaded to: SVG Repo, www.svgrepo.com, Generator: SVG Repo Mixer Tools -->
<svg height="800px" width="800px" version="1.1" id="Layer_1" xmlns="http://www.w3.org/2000/svg" xmlns:xlink="http://www.w3.org/1999/xlink" 
	 viewBox="0 0 512 512" xml:space="preserve">
<circle style="fill:#324A5E;" cx="256" cy="256" r="256"/>
<path style="fill:#2B3B4E;" d="M497.89,339.977L331.424,173.511h-26.993l-1.231,84.413l-84.413-84.413h-28.943v106.694
	l-60.552,80.305l150.39,150.39C381.233,501.582,465.61,432.969,497.89,339.977z"/>
<path style="fill:#FFD15D;" d="M210.742,203.335h-15.226c-5.251,0-9.525-4.272-9.525-9.523v-15.227c0-5.251,4.272-9.523,9.525-9.523
	h15.226c5.251,0,9.525,4.272,9.525,9.523v15.227C220.267,199.063,215.995,203.335,210.742,203.335z M195.517,176.175
	c-1.329,0-2.41,1.081-2.41,2.41v15.227c0,1.329,1.081,2.41,2.41,2.41h15.226c1.329,0,2.41-1.081,2.41-2.41v-15.227
	c0-1.329-1.081-2.41-2.41-2.41H195.517z"/>
<path style="fill:#F9B54C;" d="M229.323,285.787h-52.388c-8.795,0-15.638-7.646-14.667-16.386l8.849-79.646h64.024l8.849,79.646
	C244.962,278.142,238.118,285.787,229.323,285.787z"/>
<path style="fill:#FFD15D;" d="M323.379,203.335h-15.226c-5.251,0-9.525-4.272-9.525-9.523v-15.227c0-5.251,4.272-9.523,9.525-9.523
	h15.226c5.251,0,9.525,4.272,9.525,9.523v15.227C332.903,199.063,328.632,203.335,323.379,203.335z M308.153,176.175
	c-1.329,0-2.41,1.081-2.41,2.41v15.227c0,1.329,1.081,2.41,2.41,2.41h15.226c1.329,0,2.41-1.081,2.41-2.41v-15.227
	c0-1.329-1.081-2.41-2.41-2.41H308.153z"/>
<path style="fill:#FC6F58;" d="M341.959,285.787h-52.388c-8.795,0-15.638-7.646-14.667-16.386l8.849-79.646h64.021l8.849,79.646
	C357.597,278.142,350.754,285.787,341.959,285.787z"/>
<path style="fill:#FFFFFF;" d="M355.556,370.64H156.444c-23.564,0-42.667-19.103-42.667-42.667l0,0
	c0-23.564,19.103-42.667,42.667-42.667h199.111c23.564,0,42.667,19.103,42.667,42.667l0,0
	C398.222,351.537,379.12,370.64,355.556,370.64z"/>
<path style="fill:#E6F3FF;" d="M355.556,285.306h-100.13v85.333h100.13c23.564,0,42.667-19.103,42.667-42.667
	S379.12,285.306,355.556,285.306z"/>
<g>
	<circle style="fill:#84DBFF;" cx="157.737" cy="327.973" r="28.444"/>
	<circle style="fill:#84DBFF;" cx="223.246" cy="327.973" r="28.444"/>
</g>
<g>
	<circle style="fill:#31BAFD;" cx="288.754" cy="327.973" r="28.444"/>
	<circle style="fill:#31BAFD;" cx="354.263" cy="327.973" r="28.444"/>
</g>
</svg>